<svg xmlns="http://www.w3.org/2000/svg" xmlns:xlink="http://www.w3.org/1999/xlink" version="1.1" x="0px" y="0px" viewBox="NaN NaN NaN 500"><g><path d="M267.351,14.147 C282.431,14.147 294.523,27.472 294.523,43.762 L294.523,356.238 C294.523,372.528 282.431,385.853 267.352,385.853 L132.648,385.853 C117.569,385.853 105.477,372.528 105.477,356.238 L105.477,43.762 C105.477,27.472 117.569,14.147 132.648,14.147 L267.351,14.147 z M199.672,345.637 C191.846,345.638 185.456,351.799 185.456,359.459 C185.456,367.12 191.846,373.281 199.672,373.281 C207.497,373.281 213.887,367.12 213.887,359.459 C213.887,351.799 207.497,345.638 199.672,345.638 z M275.404,60.818 L125.024,60.818 L125.024,333.286 C125.775,332.48 125.422,332.859 126.084,332.149 C127.952,330.145 127.952,330.145 130.598,327.306 C136.825,320.626 136.825,320.626 144.297,312.61 C151.768,304.594 151.768,304.594 157.995,297.913 C160.641,295.074 160.641,295.074 162.509,293.07 C163.069,292.469 162.818,292.739 163.264,292.26 L153.915,258.855 L153.372,258.676 L153.639,257.865 L136.929,198.155 L141.744,196.808 L156.441,249.326 L171.444,203.61 L171.414,203.523 L171.48,203.5 L183.125,168.019 L187.876,169.578 L177.416,201.448 L213.137,189.1 L214.771,193.826 L175.458,207.415 L158.863,257.981 L167.902,290.282 C169.572,290.149 171.241,290.015 172.911,289.882 C179.971,289.319 179.971,289.319 188.442,288.643 C196.914,287.967 196.914,287.967 203.973,287.403 C205.16,287.309 206.347,287.214 207.534,287.119 L237.028,261.184 L240.33,264.939 L213.845,288.228 C214.927,289.101 216.009,289.974 217.091,290.847 C221.379,294.308 221.379,294.308 226.526,298.461 C231.672,302.614 231.672,302.614 235.96,306.075 C239.391,308.844 239.391,308.844 240.249,309.536 L237.109,313.427 C236.251,312.735 236.251,312.735 232.82,309.966 C228.532,306.505 228.532,306.505 223.386,302.352 C218.239,298.199 218.239,298.199 213.951,294.738 C212.78,293.793 211.608,292.848 210.438,291.903 C208.415,292.065 206.393,292.226 204.371,292.387 C197.312,292.951 197.312,292.951 188.84,293.627 C180.368,294.303 180.368,294.303 173.309,294.866 C171.278,295.028 169.247,295.19 167.217,295.353 C166.475,296.148 166.825,295.773 166.167,296.479 C164.299,298.483 164.299,298.483 161.652,301.322 C157.525,305.75 153.398,310.178 149.271,314.606 C144.266,319.976 139.261,325.345 134.256,330.715 C133.229,331.817 132.203,332.919 131.176,334.02 L275.404,334.02 L275.404,60.818 z M231.595,34.643 L226.204,34.643 C224.441,34.644 223.012,36.073 223.012,37.836 C223.012,39.6 224.441,41.029 226.204,41.029 L231.595,41.029 C233.359,41.029 234.788,39.6 234.788,37.836 C234.788,36.073 233.359,34.644 231.595,34.643 z M180.023,34.25 L180.023,34.25 C178.26,34.231 176.815,35.645 176.796,37.408 C176.777,39.172 178.191,40.616 179.954,40.635 L216.287,41.029 C218.05,41.048 219.495,39.634 219.514,37.871 C219.533,36.108 218.119,34.663 216.356,34.644 L180.023,34.25 z" fill="#000000"/></g><text x="NaN" y="NaN" fill="#000000" font-size="5px" font-weight="bold" font-family="'Helvetica Neue', Helvetica, Arial-Unicode, Arial, Sans-serif">Created by tom</text><text x="NaN" y="NaN" fill="#000000" font-size="5px" font-weight="bold" font-family="'Helvetica Neue', Helvetica, Arial-Unicode, Arial, Sans-serif">from the Noun Project</text></svg>